{
    "asset": {
        "generator": "COLLADA2GLTF",
        "version": "2.0"
    },
    "scenes": [
        {
            "nodes": [
                0
            ]
        }
    ],
    "scene": 0,
    "nodes": [
        {
            "children": [
                1
            ],
            "matrix": [
                1.0,
                0.0,
                0.0,
                0.0,
                0.0,
                0.0,
                -1.0,
                0.0,
                0.0,
                1.0,
                0.0,
                0.0,
                0.0,
                0.0,
                0.0,
                1.0
            ],
            "name": "Z_UP"
        },
        {
            "children": [
                2
            ],
            "name": "Model"
        },
        {
            "children": [
                3
            ],
            "name": "Part_0"
        },
        {
            "children": [
                13,
                12,
                11,
                10,
                9,
                8,
                7,
                6,
                5,
                4
            ],
            "name": "Part_0_Model"
        },
        {
            "mesh": 0,
            "matrix": [
                1174.0,
                0.0,
                0.0,
                0.0,
                0.0,
                563.0,
                0.0,
                0.0,
                0.0,
                0.0,
                59.2760009765625,
                0.0,
                0.0,
                0.0,
                0.0,
                1.0
            ],
            "name": "10_primitive"
        },
        {
            "mesh": 1,
            "matrix": [
                1174.0,
                0.0,
                0.0,
                0.0,
                0.0,
                563.0,
                0.0,
                0.0,
                0.0,
                0.0,
                48.06700134277344,
                0.0,
                0.0,
                0.0,
                0.0,
                1.0
            ],
            "name": "9_primitive"
        },
        {
            "mesh": 2,
            "matrix": [
                1114.0,
                0.0,
                0.0,
                0.0,
                0.0,
                168.69998168945313,
                0.0,
                0.0,
                0.0,
                0.0,
                11.800018310546877,
                0.0,
                0.0,
                0.0,
                0.0,
                1.0
            ],
            "name": "8_primitive"
        },
        {
            "mesh": 3,
            "matrix": [
                1114.0,
                0.0,
                0.0,
                0.0,
                0.0,
                168.69998168945313,
                0.0,
                0.0,
                0.0,
                0.0,
                11.800018310546877,
                0.0,
                0.0,
                0.0,
                0.0,
                1.0
            ],
            "name": "7_primitive"
        },
        {
            "mesh": 4,
            "matrix": [
                1166.0,
                0.0,
                0.0,
                0.0,
                0.0,
                40.0,
                0.0,
                0.0,
                0.0,
                0.0,
                7.0,
                0.0,
                0.0,
                0.0,
                0.0,
                1.0
            ],
            "name": "6_primitive"
        },
        {
            "mesh": 5,
            "matrix": [
                1170.0,
                0.0,
                0.0,
                0.0,
                0.0,
                600.0,
                0.0,
                0.0,
                0.0,
                0.0,
                590.0,
                0.0,
                0.0,
                0.0,
                0.0,
                1.0
            ],
            "name": "5_primitive"
        },
        {
            "mesh": 6,
            "matrix": [
                1114.0,
                0.0,
                0.0,
                0.0,
                0.0,
                300.0,
                0.0,
                0.0,
                0.0,
                0.0,
                59.999996185302737,
                0.0,
                0.0,
                0.0,
                0.0,
                1.0
            ],
            "name": "4_primitive"
        },
        {
            "mesh": 7,
            "matrix": [
                1200.0,
                0.0,
                0.0,
                0.0,
                0.0,
                600.0,
                0.0,
                0.0,
                0.0,
                0.0,
                20.0,
                0.0,
                0.0,
                0.0,
                0.0,
                1.0
            ],
            "name": "3_primitive"
        },
        {
            "mesh": 8,
            "matrix": [
                1200.0,
                0.0,
                0.0,
                0.0,
                0.0,
                600.0,
                0.0,
                0.0,
                0.0,
                0.0,
                16.0,
                0.0,
                0.0,
                0.0,
                0.0,
                1.0
            ],
            "name": "2_primitive"
        },
        {
            "mesh": 9,
            "matrix": [
                1196.0,
                0.0,
                0.0,
                0.0,
                0.0,
                596.0,
                0.0,
                0.0,
                0.0,
                0.0,
                20.0,
                0.0,
                0.0,
                0.0,
                0.0,
                1.0
            ],
            "name": "1_primitive"
        }
    ],
    "meshes": [
        {
            "primitives": [
                {
                    "attributes": {
                        "NORMAL": 1,
                        "POSITION": 2
                    },
                    "indices": 0,
                    "mode": 4,
                    "material": 0
                }
            ],
            "name": "geometry-10"
        },
        {
            "primitives": [
                {
                    "attributes": {
                        "NORMAL": 4,
                        "POSITION": 5
                    },
                    "indices": 3,
                    "mode": 4,
                    "material": 1
                }
            ],
            "name": "geometry-9"
        },
        {
            "primitives": [
                {
                    "attributes": {
                        "NORMAL": 7,
                        "POSITION": 8
                    },
                    "indices": 6,
                    "mode": 4,
                    "material": 2
                }
            ],
            "name": "geometry-8"
        },
        {
            "primitives": [
                {
                    "attributes": {
                        "NORMAL": 10,
                        "POSITION": 11
                    },
                    "indices": 9,
                    "mode": 4,
                    "material": 3
                }
            ],
            "name": "geometry-7"
        },
        {
            "primitives": [
                {
                    "attributes": {
                        "NORMAL": 13,
                        "POSITION": 14
                    },
                    "indices": 12,
                    "mode": 4,
                    "material": 4
                }
            ],
            "name": "geometry-6"
        },
        {
            "primitives": [
                {
                    "attributes": {
                        "NORMAL": 16,
                        "POSITION": 17
                    },
                    "indices": 15,
                    "mode": 4,
                    "material": 5
                }
            ],
            "name": "geometry-5"
        },
        {
            "primitives": [
                {
                    "attributes": {
                        "NORMAL": 19,
                        "POSITION": 20
                    },
                    "indices": 18,
                    "mode": 4,
                    "material": 6
                }
            ],
            "name": "geometry-4"
        },
        {
            "primitives": [
                {
                    "attributes": {
                        "NORMAL": 22,
                        "POSITION": 23
                    },
                    "indices": 21,
                    "mode": 4,
                    "material": 7
                }
            ],
            "name": "geometry-3"
        },
        {
            "primitives": [
                {
                    "attributes": {
                        "NORMAL": 25,
                        "POSITION": 26
                    },
                    "indices": 24,
                    "mode": 4,
                    "material": 8
                }
            ],
            "name": "geometry-2"
        },
        {
            "primitives": [
                {
                    "attributes": {
                        "NORMAL": 28,
                        "POSITION": 29
                    },
                    "indices": 27,
                    "mode": 4,
                    "material": 9
                }
            ],
            "name": "geometry-1"
        }
    ],
    "accessors": [
        {
            "bufferView": 0,
            "byteOffset": 0,
            "componentType": 5123,
            "count": 696,
            "max": [
                247
            ],
            "min": [
                0
            ],
            "type": "SCALAR"
        },
        {
            "bufferView": 1,
            "byteOffset": 0,
            "componentType": 5126,
            "count": 248,
            "max": [
                0.9934219717979432,
                0.9999560117721558,
                0.7626559734344482
            ],
            "min": [
                -0.9934219717979432,
                -0.9999560117721558,
                -0.7626429796218872
            ],
            "type": "VEC3"
        },
        {
            "bufferView": 1,
            "byteOffset": 2976,
            "componentType": 5126,
            "count": 248,
            "max": [
                0.0005000000237487257,
                0.0004906750400550664,
                0.0010000000474974514
            ],
            "min": [
                -0.0005000000237487257,
                -0.0005093250656500459,
                0.0
            ],
            "type": "VEC3"
        },
        {
            "bufferView": 0,
            "byteOffset": 1392,
            "componentType": 5123,
            "count": 624,
            "max": [
                247
            ],
            "min": [
                0
            ],
            "type": "SCALAR"
        },
        {
            "bufferView": 1,
            "byteOffset": 5952,
            "componentType": 5126,
            "count": 248,
            "max": [
                1.0,
                0.0,
                0.0
            ],
            "min": [
                -1.0,
                0.0,
                -1.0
            ],
            "type": "VEC3"
        },
        {
            "bufferView": 1,
            "byteOffset": 8928,
            "componentType": 5126,
            "count": 248,
            "max": [
                0.0005000000237487257,
                0.0004906750400550664,
                0.0010000000474974514
            ],
            "min": [
                -0.0005000000237487257,
                -0.0005093250656500459,
                0.0
            ],
            "type": "VEC3"
        },
        {
            "bufferView": 0,
            "byteOffset": 2640,
            "componentType": 5123,
            "count": 48,
            "max": [
                23
            ],
            "min": [
                0
            ],
            "type": "SCALAR"
        },
        {
            "bufferView": 1,
            "byteOffset": 11904,
            "componentType": 5126,
            "count": 24,
            "max": [
                1.0,
                0.0,
                0.0
            ],
            "min": [
                -1.0,
                0.0,
                0.0
            ],
            "type": "VEC3"
        },
        {
            "bufferView": 1,
            "byteOffset": 12192,
            "componentType": 5126,
            "count": 24,
            "max": [
                0.0005000000237487257,
                0.0010980380466207862,
                0.043204765766859058
            ],
            "min": [
                -0.0005000000237487257,
                0.0000980380063992925,
                0.04220476746559143
            ],
            "type": "VEC3"
        },
        {
            "bufferView": 0,
            "byteOffset": 2736,
            "componentType": 5123,
            "count": 216,
            "max": [
                71
            ],
            "min": [
                0
            ],
            "type": "SCALAR"
        },
        {
            "bufferView": 1,
            "byteOffset": 12480,
            "componentType": 5126,
            "count": 72,
            "max": [
                0.0,
                1.0,
                0.1982329934835434
            ],
            "min": [
                0.0,
                -1.0,
                -0.1982329934835434
            ],
            "type": "VEC3"
        },
        {
            "bufferView": 1,
            "byteOffset": 13344,
            "componentType": 5126,
            "count": 72,
            "max": [
                0.0005000000237487257,
                0.0010980380466207862,
                0.043204765766859058
            ],
            "min": [
                -0.0005000000237487257,
                0.0000980380063992925,
                0.04220476746559143
            ],
            "type": "VEC3"
        },
        {
            "bufferView": 0,
            "byteOffset": 3168,
            "componentType": 5123,
            "count": 180,
            "max": [
                127
            ],
            "min": [
                0
            ],
            "type": "SCALAR"
        },
        {
            "bufferView": 1,
            "byteOffset": 14208,
            "componentType": 5126,
            "count": 128,
            "max": [
                1.0,
                1.0,
                1.0
            ],
            "min": [
                -1.0,
                -1.0,
                0.0
            ],
            "type": "VEC3"
        },
        {
            "bufferView": 1,
            "byteOffset": 15744,
            "componentType": 5126,
            "count": 128,
            "max": [
                0.0005000000237487257,
                0.003000000026077032,
                0.0924285799264908
            ],
            "min": [
                -0.0005000000237487257,
                0.0020000000949949028,
                0.09142857789993286
            ],
            "type": "VEC3"
        },
        {
            "bufferView": 0,
            "byteOffset": 3528,
            "componentType": 5123,
            "count": 336,
            "max": [
                223
            ],
            "min": [
                0
            ],
            "type": "SCALAR"
        },
        {
            "bufferView": 1,
            "byteOffset": 17280,
            "componentType": 5126,
            "count": 224,
            "max": [
                1.0,
                1.0,
                1.0
            ],
            "min": [
                -1.0,
                -1.0,
                -1.0
            ],
            "type": "VEC3"
        },
        {
            "bufferView": 1,
            "byteOffset": 19968,
            "componentType": 5126,
            "count": 224,
            "max": [
                0.0005000000237487257,
                0.0005000000237487257,
                0.0010847460944205525
            ],
            "min": [
                -0.0005000000237487257,
                -0.0005000000237487257,
                0.00008474601054331288
            ],
            "type": "VEC3"
        },
        {
            "bufferView": 0,
            "byteOffset": 4200,
            "componentType": 5123,
            "count": 108,
            "max": [
                63
            ],
            "min": [
                0
            ],
            "type": "SCALAR"
        },
        {
            "bufferView": 1,
            "byteOffset": 22656,
            "componentType": 5126,
            "count": 64,
            "max": [
                1.0,
                1.0,
                0.0
            ],
            "min": [
                -1.0,
                -1.0,
                -1.0
            ],
            "type": "VEC3"
        },
        {
            "bufferView": 1,
            "byteOffset": 23424,
            "componentType": 5126,
            "count": 64,
            "max": [
                0.0005000000237487257,
                0.0008333330624736846,
                0.011333334259688856
            ],
            "min": [
                -0.0005000000237487257,
                -0.0001666670141275972,
                0.01033333409577608
            ],
            "type": "VEC3"
        },
        {
            "bufferView": 0,
            "byteOffset": 4416,
            "componentType": 5123,
            "count": 96,
            "max": [
                31
            ],
            "min": [
                0
            ],
            "type": "SCALAR"
        },
        {
            "bufferView": 1,
            "byteOffset": 24192,
            "componentType": 5126,
            "count": 32,
            "max": [
                0.9914129972457886,
                0.8858649730682373,
                0.03272299841046333
            ],
            "min": [
                -0.9914129972457886,
                -0.8858649730682373,
                -0.03272299841046333
            ],
            "type": "VEC3"
        },
        {
            "bufferView": 1,
            "byteOffset": 24576,
            "componentType": 5126,
            "count": 32,
            "max": [
                0.0005000000237487257,
                0.0005000000237487257,
                0.03500000014901161
            ],
            "min": [
                -0.0005000000237487257,
                -0.0005000000237487257,
                0.03400000184774399
            ],
            "type": "VEC3"
        },
        {
            "bufferView": 0,
            "byteOffset": 4608,
            "componentType": 5123,
            "count": 48,
            "max": [
                15
            ],
            "min": [
                0
            ],
            "type": "SCALAR"
        },
        {
            "bufferView": 1,
            "byteOffset": 24960,
            "componentType": 5126,
            "count": 16,
            "max": [
                0.9792199730873108,
                0.8863419890403748,
                0.0
            ],
            "min": [
                -0.9792199730873108,
                -0.8863419890403748,
                0.0
            ],
            "type": "VEC3"
        },
        {
            "bufferView": 1,
            "byteOffset": 25152,
            "componentType": 5126,
            "count": 16,
            "max": [
                0.0005000000237487257,
                0.0005000000237487257,
                0.04362500086426735
            ],
            "min": [
                -0.0005000000237487257,
                -0.0005000000237487257,
                0.042625002562999728
            ],
            "type": "VEC3"
        },
        {
            "bufferView": 0,
            "byteOffset": 4704,
            "componentType": 5123,
            "count": 36,
            "max": [
                15
            ],
            "min": [
                0
            ],
            "type": "SCALAR"
        },
        {
            "bufferView": 1,
            "byteOffset": 25344,
            "componentType": 5126,
            "count": 16,
            "max": [
                0.0,
                0.0,
                1.0
            ],
            "min": [
                0.0,
                0.0,
                -1.0
            ],
            "type": "VEC3"
        },
        {
            "bufferView": 1,
            "byteOffset": 25536,
            "componentType": 5126,
            "count": 16,
            "max": [
                0.0005000000237487257,
                0.0005000000237487257,
                0.03500000014901161
            ],
            "min": [
                -0.0005000000237487257,
                -0.0005000000237487257,
                0.03400000184774399
            ],
            "type": "VEC3"
        }
    ],
    "materials": [
        {
            "pbrMetallicRoughness": {
                "baseColorFactor": [
                    0.1599999964237213,
                    0.1599999964237213,
                    0.1599999964237213,
                    1.0
                ],
                "metallicFactor": 0.0
            },
            "emissiveFactor": [
                0.0,
                0.0,
                0.0
            ],
            "doubleSided": true,
            "name": "color15material-effect"
        },
        {
            "pbrMetallicRoughness": {
                "baseColorFactor": [
                    0.1599999964237213,
                    0.1599999964237213,
                    0.1599999964237213,
                    1.0
                ],
                "metallicFactor": 0.0
            },
            "emissiveFactor": [
                0.0,
                0.0,
                0.0
            ],
            "doubleSided": true,
            "name": "color15material-effect"
        },
        {
            "pbrMetallicRoughness": {
                "baseColorFactor": [
                    0.5799999833106995,
                    0.5799999833106995,
                    0.5799999833106995,
                    1.0
                ],
                "metallicFactor": 0.0
            },
            "emissiveFactor": [
                0.0,
                0.0,
                0.0
            ],
            "doubleSided": true,
            "name": "color14material-effect"
        },
        {
            "pbrMetallicRoughness": {
                "baseColorFactor": [
                    0.5799999833106995,
                    0.5799999833106995,
                    0.5799999833106995,
                    1.0
                ],
                "metallicFactor": 0.0
            },
            "emissiveFactor": [
                0.0,
                0.0,
                0.0
            ],
            "doubleSided": true,
            "name": "color14material-effect"
        },
        {
            "pbrMetallicRoughness": {
                "baseColorFactor": [
                    0.19607800245285038,
                    0.19607800245285038,
                    0.19607800245285038,
                    1.0
                ],
                "metallicFactor": 0.0
            },
            "emissiveFactor": [
                0.0,
                0.0,
                0.0
            ],
            "doubleSided": true,
            "name": "color13material-effect"
        },
        {
            "pbrMetallicRoughness": {
                "baseColorFactor": [
                    0.1599999964237213,
                    0.1599999964237213,
                    0.1599999964237213,
                    1.0
                ],
                "metallicFactor": 0.0
            },
            "emissiveFactor": [
                0.0,
                0.0,
                0.0
            ],
            "doubleSided": true,
            "name": "color12material-effect"
        },
        {
            "pbrMetallicRoughness": {
                "baseColorFactor": [
                    0.1599999964237213,
                    0.1599999964237213,
                    0.1599999964237213,
                    1.0
                ],
                "metallicFactor": 0.0
            },
            "emissiveFactor": [
                0.0,
                0.0,
                0.0
            ],
            "doubleSided": true,
            "name": "color12material-effect"
        },
        {
            "pbrMetallicRoughness": {
                "baseColorFactor": [
                    0.1599999964237213,
                    0.1599999964237213,
                    0.1599999964237213,
                    1.0
                ],
                "metallicFactor": 0.0
            },
            "emissiveFactor": [
                0.0,
                0.0,
                0.0
            ],
            "doubleSided": true,
            "name": "color12material-effect"
        },
        {
            "pbrMetallicRoughness": {
                "baseColorFactor": [
                    0.1599999964237213,
                    0.1599999964237213,
                    0.1599999964237213,
                    1.0
                ],
                "metallicFactor": 0.0
            },
            "emissiveFactor": [
                0.0,
                0.0,
                0.0
            ],
            "doubleSided": true,
            "name": "color12material-effect"
        },
        {
            "pbrMetallicRoughness": {
                "baseColorFactor": [
                    0.8199999928474426,
                    0.8079730272293091,
                    0.7871999740600586,
                    1.0
                ],
                "metallicFactor": 0.0
            },
            "emissiveFactor": [
                0.0,
                0.0,
                0.0
            ],
            "doubleSided": true,
            "name": "color11material-effect"
        }
    ],
    "bufferViews": [
        {
            "buffer": 0,
            "byteOffset": 25728,
            "byteLength": 4776,
            "target": 34963
        },
        {
            "buffer": 0,
            "byteOffset": 0,
            "byteLength": 25728,
            "byteStride": 12,
            "target": 34962
        }
    ],
    "buffers": [
        {
            "byteLength": 30504,
            "uri": "data:application/octet-stream;base64,"
        }
    ]
}
